<svg xmlns="http://www.w3.org/2000/svg" viewBox="0 0 24 24"><rect width="24" height="24" rx="5" fill="#2B4033"/><g fill="#FAF7F2" transform="translate(-11.262,-0.633) scale(0.0330)"><path transform="translate(719.0,149.0)" d="M0.0 0.0 C2.1 1.6 4.0 3.3 6.0 5.0 C8.9 6.4 10.0 6.0 13.2 5.1 C18.7 3.5 23.2 2.8 28.6 5.1 C38.0 10.5 43.3 16.8 48.3 26.3 C50.0 29.0 51.3 30.4 54.0 32.0 C58.3 32.0 61.7 30.3 65.5 28.5 C73.0 25.0 73.0 25.0 77.0 25.0 C80.3 26.4 81.7 27.3 83.1 30.6 C85.0 33.0 85.0 33.0 88.7 33.6 C90.2 33.6 91.7 33.6 93.2 33.6 C102.2 33.9 108.6 35.0 115.5 41.4 C120.6 46.9 121.6 52.1 122.6 59.4 C123.0 62.0 123.0 62.0 124.0 64.0 C124.4 63.9 124.4 63.9 126.7 63.7 C127.8 63.6 129.0 63.4 130.2 63.3 C131.3 63.2 132.5 63.1 133.7 62.9 C137.4 63.0 139.1 63.7 142.0 66.0 C143.2 68.4 143.0 69.7 142.9 72.4 C142.9 73.3 142.8 74.2 142.8 75.1 C142.7 76.9 142.6 78.8 142.5 80.6 C142.3 87.3 142.3 87.3 145.3 90.5 C151.0 92.8 156.8 93.9 162.8 95.0 C172.3 96.9 179.5 100.8 185.0 109.0 C186.7 112.3 187.8 115.6 188.3 119.3 C188.8 123.0 189.2 125.2 191.9 127.9 C193.5 129.0 195.1 130.2 196.7 131.3 C202.1 135.3 204.7 140.4 206.0 147.0 C206.8 155.0 204.5 162.2 199.4 168.5 C195.2 172.9 195.2 172.9 191.9 173.2 C191.1 173.2 190.4 173.2 189.6 173.2 C189.2 173.2 189.2 173.2 187.3 173.2 C185.1 173.0 183.1 172.6 181.0 172.0 C181.1 174.3 181.1 174.3 182.0 177.0 C184.2 178.4 186.2 179.4 188.6 180.4 C193.4 182.6 197.4 184.9 201.2 188.5 C203.5 190.4 205.9 191.6 208.6 192.9 C215.2 196.4 218.7 200.6 221.4 207.6 C222.4 213.0 222.4 217.3 220.5 222.5 C218.6 227.8 217.9 231.6 220.3 237.0 C221.4 239.1 222.5 241.2 223.6 243.2 C227.4 250.6 227.0 260.1 225.4 268.1 C221.7 279.2 214.7 285.9 205.0 292.0 C205.8 297.8 205.8 297.8 207.6 299.5 C209.0 301.0 209.0 301.0 209.3 303.8 C208.8 308.7 206.3 310.2 202.7 313.2 C193.5 319.4 183.8 320.2 173.0 318.5 C170.6 318.1 168.3 317.6 166.0 317.0 C166.5 318.2 167.0 319.3 167.5 320.5 C169.2 324.9 169.2 328.4 169.0 333.0 C166.4 334.1 164.7 334.3 162.0 333.2 C156.9 330.3 154.3 327.5 152.0 322.0 C151.7 318.1 151.7 318.1 152.0 315.0 C153.0 314.0 153.0 314.0 156.6 313.9 C157.7 314.0 158.8 314.0 160.0 314.0 C156.6 307.5 156.6 307.5 154.2 305.6 C151.2 304.8 148.1 304.4 145.0 304.0 C145.0 305.1 145.0 306.3 145.0 307.4 C145.0 308.9 145.1 310.4 145.1 311.9 C145.1 312.6 145.1 313.4 145.1 314.1 C145.1 319.8 145.1 319.8 144.0 322.0 C141.7 322.3 141.7 322.3 139.0 322.0 C137.1 320.2 137.1 320.2 135.2 317.9 C131.9 313.8 128.6 311.1 124.1 308.5 C119.0 304.9 117.5 301.0 116.3 295.1 C115.0 290.4 114.2 287.3 110.1 284.4 C101.2 279.6 90.9 275.8 80.8 275.9 C80.2 275.9 80.2 275.9 77.5 276.0 C77.1 276.0 77.1 276.0 75.0 276.0 C76.7 279.8 79.0 282.1 82.0 285.0 C84.8 288.1 85.0 288.6 85.0 293.0 C81.5 291.7 78.5 290.1 75.3 288.1 C66.8 282.9 58.9 280.7 49.0 283.0 C38.5 286.6 31.6 293.9 26.2 303.4 C21.5 313.1 20.7 323.1 21.2 333.8 C21.3 334.7 21.3 335.6 21.4 336.5 C22.5 354.2 23.9 372.7 37.0 386.0 C47.8 394.8 59.6 397.7 73.2 398.9 C85.9 400.0 97.3 402.4 109.3 406.5 C115.1 408.4 120.4 409.1 126.6 409.1 C127.1 409.1 127.1 409.1 129.9 409.1 C132.7 409.0 135.2 408.6 138.0 408.0 C140.3 408.0 142.7 408.0 145.0 408.0 C144.4 411.6 144.0 412.0 141.1 414.6 C131.9 420.6 120.6 421.6 110.0 419.6 C107.2 419.0 104.5 418.3 101.8 417.5 C96.0 415.9 90.1 414.7 84.0 415.0 C83.3 415.7 82.7 416.3 82.0 417.0 C82.7 417.5 83.4 418.0 84.2 418.5 C99.9 429.7 99.9 429.7 103.0 437.0 C102.7 439.8 102.7 439.8 102.0 442.0 C96.6 442.5 96.6 442.5 93.8 440.4 C93.5 440.1 93.5 440.1 91.8 438.3 C81.4 428.5 68.2 426.2 54.4 424.2 C43.8 422.6 34.0 419.8 24.0 416.0 C30.2 427.7 39.9 431.0 52.0 435.0 C71.7 441.7 71.7 441.7 79.0 449.0 C78.6 451.6 78.6 451.6 78.0 454.0 C73.2 455.6 69.9 454.1 65.4 452.1 C55.4 447.8 55.4 447.8 49.8 447.9 C48.5 448.0 47.3 448.0 46.0 448.0 C44.7 452.1 45.4 455.4 46.0 459.6 C46.0 462.6 45.0 463.8 43.0 466.0 C40.1 465.8 40.1 465.8 37.0 465.0 C35.6 462.6 35.6 462.6 34.6 459.5 C32.3 453.1 29.2 448.4 24.0 444.0 C20.5 442.4 20.5 442.4 18.0 442.0 C17.9 442.3 17.9 442.3 17.5 443.6 C17.0 445.2 16.4 446.7 15.9 448.3 C15.3 450.1 14.7 451.9 14.1 453.7 C12.0 460.0 9.7 466.2 5.0 471.0 C2.4 472.0 0.8 472.1 -2.0 472.0 C-3.3 467.7 -2.6 465.2 -1.1 461.0 C2.1 451.2 2.5 441.4 -2.0 432.0 C-3.9 428.6 -5.9 425.3 -8.0 422.0 C-8.4 421.4 -8.8 420.7 -9.1 420.1 C-10.5 417.8 -11.6 416.2 -14.0 414.9 C-17.0 415.1 -18.0 416.8 -20.0 419.0 C-28.1 429.7 -32.6 439.4 -31.0 453.0 C-30.1 456.7 -29.0 460.3 -27.8 463.9 C-27.0 467.1 -27.1 468.9 -28.0 472.0 C-30.9 472.2 -32.5 472.4 -34.8 470.7 C-40.0 464.8 -42.5 458.4 -45.0 451.0 C-45.2 450.5 -45.2 450.5 -46.0 448.2 C-46.7 446.1 -47.3 444.1 -48.0 442.0 C-53.7 443.0 -56.5 446.1 -60.1 450.3 C-62.8 454.1 -64.2 458.2 -65.6 462.6 C-67.0 465.0 -67.0 465.0 -70.1 465.8 C-70.6 465.9 -70.6 465.9 -73.0 466.0 C-75.6 463.4 -76.0 462.1 -76.1 458.3 C-76.0 457.0 -75.8 455.6 -75.7 454.2 C-75.6 453.6 -75.6 452.9 -75.5 452.1 C-75.3 450.4 -75.2 448.7 -75.0 447.0 C-83.3 447.8 -90.3 449.6 -97.8 453.1 C-101.2 454.7 -102.8 455.1 -106.4 454.2 C-107.3 453.8 -108.1 453.4 -109.0 453.0 C-109.0 450.2 -108.5 448.5 -106.6 446.5 C-99.4 440.8 -91.0 437.9 -82.4 435.2 C-73.4 432.3 -63.8 428.8 -57.0 422.0 C-55.7 419.2 -55.7 419.2 -55.0 417.0 C-60.0 418.0 -64.8 419.2 -69.6 420.9 C-75.9 422.9 -82.1 423.9 -88.6 425.0 C-102.1 427.3 -114.2 429.9 -124.1 440.2 C-126.0 442.0 -126.0 442.0 -128.8 442.2 C-131.0 442.0 -131.0 442.0 -132.2 440.4 C-133.0 438.0 -133.0 438.0 -131.6 434.7 C-127.3 428.0 -121.6 423.4 -114.8 419.4 C-113.0 418.0 -113.0 418.0 -112.0 415.0 C-119.7 415.2 -126.6 416.0 -133.9 418.1 C-145.7 421.3 -157.8 421.7 -168.9 416.1 C-171.9 414.2 -173.8 412.4 -175.0 409.0 C-174.7 408.7 -174.3 408.3 -174.0 408.0 C-172.4 408.1 -170.9 408.3 -169.3 408.4 C-156.6 409.6 -146.2 408.7 -134.0 405.0 C-122.2 401.4 -110.7 399.2 -98.3 398.2 C-84.9 396.9 -73.1 392.8 -63.7 382.7 C-51.1 366.7 -49.3 340.7 -51.0 321.0 C-53.1 309.1 -57.6 296.7 -67.6 289.1 C-75.0 284.3 -80.9 281.1 -90.0 282.0 C-97.8 283.9 -104.2 287.0 -110.8 291.6 C-113.0 293.0 -113.0 293.0 -115.0 293.0 C-114.5 288.6 -113.1 286.6 -110.0 283.4 C-105.6 278.9 -105.6 278.9 -105.0 275.0 C-117.8 276.1 -135.0 277.7 -144.0 288.0 C-145.1 291.0 -145.8 294.0 -146.4 297.2 C-147.8 303.8 -151.9 306.9 -157.0 310.6 C-160.7 313.2 -163.6 316.5 -166.5 319.9 C-169.0 322.0 -169.0 322.0 -171.8 321.9 C-174.0 321.0 -174.0 321.0 -175.0 320.0 C-175.1 317.3 -175.1 314.6 -175.1 311.9 C-175.1 311.2 -175.1 310.4 -175.0 309.6 C-175.0 307.8 -175.0 305.9 -175.0 304.0 C-181.2 304.9 -184.9 305.9 -189.0 311.0 C-189.7 312.0 -190.3 313.0 -191.0 314.0 C-190.4 314.0 -190.4 314.0 -187.1 313.9 C-185.7 313.9 -184.4 313.9 -183.0 314.0 C-182.0 315.0 -182.0 315.0 -181.7 318.1 C-182.2 323.9 -184.3 327.3 -188.4 331.4 C-191.3 333.2 -193.5 333.8 -197.0 334.0 C-197.7 333.7 -198.3 333.3 -199.0 333.0 C-199.6 325.9 -197.8 321.9 -194.0 316.0 C-194.4 316.1 -194.4 316.1 -196.2 316.7 C-207.0 319.6 -217.5 320.7 -228.0 316.0 C-232.4 313.3 -236.2 310.4 -239.0 306.0 C-238.9 302.6 -238.5 300.6 -236.4 297.9 C-235.0 296.0 -235.0 296.0 -235.1 293.6 C-236.3 290.1 -238.0 289.3 -241.2 287.3 C-249.7 281.4 -254.1 273.2 -256.0 263.0 C-257.0 253.3 -255.0 245.4 -250.1 237.0 C-248.6 234.2 -247.9 232.7 -248.3 229.5 C-248.9 227.8 -249.4 226.2 -250.1 224.5 C-252.5 218.0 -252.7 211.6 -250.1 205.2 C-246.0 197.1 -240.0 193.6 -232.1 189.7 C-228.8 187.9 -226.4 185.9 -223.8 183.4 C-220.9 181.1 -217.5 179.8 -214.0 178.4 C-212.0 177.0 -212.0 177.0 -211.2 174.3 C-211.1 173.6 -211.1 172.8 -211.0 172.0 C-211.5 172.2 -212.0 172.3 -212.5 172.5 C-217.6 173.5 -221.5 173.7 -226.2 171.5 C-231.5 166.8 -234.8 161.0 -236.0 154.0 C-236.1 146.1 -234.9 139.1 -229.4 133.2 C-226.7 130.9 -224.8 129.2 -221.3 128.2 C-221.0 128.0 -221.0 128.0 -219.0 127.0 C-218.2 124.2 -218.2 124.2 -217.9 120.9 C-216.8 111.7 -214.3 106.7 -207.4 100.5 C-201.5 96.7 -194.7 95.3 -187.9 93.9 C-182.8 92.9 -177.9 91.8 -173.0 90.0 C-173.0 89.4 -173.0 88.8 -173.0 88.2 C-173.1 85.4 -173.1 82.6 -173.2 79.8 C-173.2 78.9 -173.2 77.9 -173.3 76.9 C-173.3 72.9 -173.2 69.6 -172.0 65.8 C-169.4 63.5 -167.5 63.5 -164.1 63.6 C-163.4 63.7 -162.6 63.7 -161.9 63.8 C-159.2 63.9 -156.6 63.9 -154.0 64.0 C-152.3 62.3 -152.5 59.8 -152.2 57.4 C-150.8 48.4 -146.9 43.4 -140.2 37.4 C-135.5 34.3 -131.1 33.8 -125.7 33.8 C-116.0 33.8 -116.0 33.8 -113.0 31.4 C-111.9 29.7 -110.9 27.8 -110.0 26.0 C-105.7 24.1 -102.7 25.3 -98.4 26.8 C-95.5 27.9 -93.0 29.0 -90.4 30.6 C-88.0 32.0 -88.0 32.0 -84.9 32.0 C-79.7 30.2 -77.6 25.4 -74.9 20.8 C-70.3 13.3 -63.5 6.7 -55.0 4.0 C-50.9 3.5 -47.0 4.0 -43.0 5.0 C-39.5 5.5 -37.0 5.7 -34.0 3.7 C-32.7 2.7 -31.4 1.6 -30.1 0.5 C-21.8 -5.5 -8.7 -4.5 0.0 0.0 Z "/><path transform="translate(705.0,580.2)" d="M0.0 0.0 C3.2 1.2 3.9 3.2 5.2 6.3 C7.0 11.9 7.3 17.9 4.9 23.3 C3.7 25.2 2.5 27.0 1.0 28.8 C-1.2 28.7 -1.2 28.7 -4.0 27.8 C-8.2 22.7 -8.6 18.2 -8.4 11.7 C-7.8 7.3 -6.4 4.5 -4.0 0.8 C-2.0 -0.2 -2.0 -0.2 0.0 0.0 Z "/><path transform="translate(795.0,448.0)" d="M0.0 0.0 C2.8 -0.3 2.8 -0.3 6.0 0.0 C10.6 4.5 12.1 8.8 12.2 15.1 C12.3 18.8 12.1 19.8 10.0 23.0 C6.2 22.8 5.1 22.1 2.3 19.4 C-1.1 14.9 -2.1 10.8 -1.7 5.2 C-1.0 2.0 -1.0 2.0 0.0 0.0 Z "/><path transform="translate(610.6,448.0)" d="M0.0 0.0 C2.4 1.0 2.4 1.0 3.8 2.6 C5.1 7.7 4.0 12.3 1.4 16.9 C-0.6 20.0 -0.6 20.0 -2.6 22.0 C-5.1 22.3 -5.1 22.3 -7.6 22.0 C-10.3 17.9 -10.2 14.8 -9.6 10.0 C-7.9 5.3 -5.6 0.0 0.0 0.0 Z "/><path transform="translate(595.0,451.0)" d="M0.0 0.0 C0.3 0.3 0.7 0.7 1.0 1.0 C0.7 6.3 -0.2 9.2 -4.0 13.0 C-8.0 16.1 -11.0 16.3 -16.0 16.0 C-16.8 13.7 -17.1 12.4 -16.4 10.0 C-12.8 2.6 -8.6 -0.8 0.0 0.0 Z "/><path transform="translate(813.0,451.0)" d="M0.0 0.0 C5.4 -0.6 8.3 0.2 12.5 3.5 C14.8 5.8 16.0 7.9 17.0 11.0 C16.7 13.9 16.7 13.9 16.0 16.0 C12.5 17.2 11.1 16.5 7.8 15.0 C3.8 12.8 0.4 9.4 -1.0 5.0 C-0.6 2.2 -0.6 2.2 0.0 0.0 Z "/><path transform="translate(931.0,324.0)" d="M0.0 0.0 C2.6 1.8 2.6 1.8 4.0 4.0 C3.9 6.2 3.9 6.2 3.0 8.0 C0.6 9.2 -0.7 9.0 -3.4 8.8 C-3.8 8.7 -3.8 8.7 -5.8 8.5 C-8.4 7.9 -9.4 7.1 -11.0 5.0 C-10.8 2.4 -10.8 2.4 -10.0 0.0 C-6.7 -1.6 -3.4 -0.9 0.0 0.0 Z "/><path transform="translate(487.0,324.0)" d="M0.0 0.0 C0.7 2.3 0.7 2.3 1.0 5.0 C-0.5 7.0 -1.7 7.9 -4.0 9.0 C-7.5 9.3 -9.4 9.4 -12.4 7.5 C-12.9 7.0 -13.4 6.5 -14.0 6.0 C-13.0 3.3 -12.0 2.0 -9.8 0.2 C-6.2 -1.3 -3.8 -0.8 0.0 0.0 Z "/><path transform="translate(814.0,435.0)" d="M0.0 0.0 C3.9 0.2 6.3 0.5 9.5 2.8 C11.0 5.0 11.0 5.0 10.8 7.2 C10.0 9.0 10.0 9.0 9.0 10.0 C5.1 9.8 2.7 9.5 -0.5 7.2 C-2.0 5.0 -2.0 5.0 -1.8 2.8 C-1.0 1.0 -1.0 1.0 0.0 0.0 Z "/><path transform="translate(594.0,435.0)" d="M0.0 0.0 C0.7 0.7 1.3 1.3 2.0 2.0 C1.9 4.4 1.9 4.4 1.0 7.0 C-1.6 9.1 -3.4 9.9 -6.7 10.3 C-9.0 10.0 -9.0 10.0 -11.0 8.0 C-10.9 5.6 -10.9 5.6 -10.0 3.0 C-6.7 0.4 -4.2 -0.6 0.0 0.0 Z "/><path transform="translate(881.0,229.0)" d="M0.0 0.0 C0.3 1.7 0.7 3.3 1.0 5.0 C-4.2 8.1 -4.2 8.1 -7.8 7.8 C-10.0 7.0 -10.0 7.0 -12.0 5.0 C-11.9 3.0 -11.9 3.0 -11.0 1.0 C-7.5 -1.8 -4.2 -0.8 0.0 0.0 Z "/><path transform="translate(533.1,228.2)" d="M0.0 0.0 C0.7 0.1 1.4 0.2 2.1 0.3 C3.9 0.8 3.9 0.8 5.9 2.8 C5.6 5.4 5.6 5.4 4.9 7.8 C1.4 8.7 -0.5 9.0 -3.9 7.6 C-6.2 5.6 -6.8 4.7 -7.1 1.8 C-3.9 -0.4 -3.5 -0.5 0.0 0.0 Z "/><path transform="translate(782.0,440.0)" d="M0.0 0.0 C2.0 0.1 2.0 0.1 4.0 1.0 C6.0 3.5 6.0 4.9 5.9 8.1 C5.0 11.0 5.0 11.0 2.9 12.4 C2.3 12.6 1.7 12.8 1.0 13.0 C-0.5 12.0 -0.5 12.0 -2.0 10.0 C-2.4 7.2 -2.2 4.9 -2.0 2.0 C-1.3 1.3 -0.7 0.7 0.0 0.0 Z "/><path transform="translate(623.0,440.0)" d="M0.0 0.0 C1.7 0.3 3.3 0.6 5.0 1.0 C5.9 4.6 6.3 6.4 4.7 9.8 C3.0 12.0 3.0 12.0 1.0 13.0 C-2.0 11.0 -2.0 11.0 -2.8 8.7 C-3.0 5.6 -2.4 3.8 -1.0 1.0 C-0.7 0.7 -0.3 0.3 0.0 0.0 Z "/><path transform="translate(779.2,162.2)" d="M0.0 0.0 C1.8 0.8 1.8 0.8 2.4 2.4 C2.9 5.9 1.7 7.8 -0.2 10.8 C-2.9 11.7 -2.9 11.7 -5.2 11.8 C-6.2 10.8 -6.2 10.8 -6.6 7.4 C-6.2 3.8 -6.2 3.8 -4.5 1.2 C-2.2 -0.2 -2.2 -0.2 0.0 0.0 Z "/><path transform="translate(628.0,162.0)" d="M0.0 0.0 C2.4 0.1 2.4 0.1 5.0 1.0 C6.9 3.8 6.9 3.8 8.0 7.0 C7.2 9.9 7.2 9.9 6.0 12.0 C3.6 11.8 3.6 11.8 1.0 11.0 C-1.4 7.9 -1.3 4.8 -1.0 1.0 C-0.7 0.7 -0.3 0.3 0.0 0.0 Z "/></g></svg>